<svg width="16" height="17" viewBox="0 0 16 17" fill="none" xmlns="http://www.w3.org/2000/svg">
<g clip-path="url(#clip0_2744_193)">
<path d="M8 2.5C4.6875 2.5 2 5.1875 2 8.5C2 11.8125 4.6875 14.5 8 14.5C8.55313 14.5 9 14.9469 9 15.5C9 16.0531 8.55313 16.5 8 16.5C3.58125 16.5 0 12.9187 0 8.5C0 4.08125 3.58125 0.5 8 0.5C12.4187 0.5 16 4.08125 16 8.5V9.5C16 11.1562 14.6562 12.5 13 12.5C12.0844 12.5 11.2625 12.0875 10.7125 11.4406C10 12.0969 9.04688 12.5 8 12.5C5.79063 12.5 4 10.7094 4 8.5C4 6.29063 5.79063 4.5 8 4.5C8.87187 4.5 9.67813 4.77813 10.3344 5.25313C10.5125 5.09688 10.7437 5 11 5C11.5531 5 12 5.44688 12 6V8.5V9.5C12 10.0531 12.4469 10.5 13 10.5C13.5531 10.5 14 10.0531 14 9.5V8.5C14 5.1875 11.3125 2.5 8 2.5ZM10 8.5C10 7.96957 9.78929 7.46086 9.41421 7.08579C9.03914 6.71071 8.53043 6.5 8 6.5C7.46957 6.5 6.96086 6.71071 6.58579 7.08579C6.21071 7.46086 6 7.96957 6 8.5C6 9.03043 6.21071 9.53914 6.58579 9.91421C6.96086 10.2893 7.46957 10.5 8 10.5C8.53043 10.5 9.03914 10.2893 9.41421 9.91421C9.78929 9.53914 10 9.03043 10 8.5Z" fill="white"/>
</g>
<defs>
<clipPath id="clip0_2744_193">
<rect width="16" height="16" fill="white" transform="translate(0 0.5)"/>
</clipPath>
</defs>
</svg>
