<svg width="20" height="21" viewBox="0 0 20 21" fill="none" xmlns="http://www.w3.org/2000/svg">
<path d="M4.28571 2.5C3.025 2.5 2 3.525 2 4.78571V16.2143C2 17.475 3.025 18.5 4.28571 18.5H7.79286V13.2929H5.90714V10.5H7.79286V9.29643C7.79286 6.18571 9.2 4.74286 12.2571 4.74286C12.8357 4.74286 13.8357 4.85714 14.2464 4.97143V7.5C14.0321 7.47857 13.6571 7.46429 13.1893 7.46429C11.6893 7.46429 11.1107 8.03214 11.1107 9.50714V10.5H14.0964L13.5821 13.2929H11.1071V18.5H15.7143C16.975 18.5 18 17.475 18 16.2143V4.78571C18 3.525 16.975 2.5 15.7143 2.5H4.28571Z" fill="white"/>
</svg>
