<svg width="20" height="21" viewBox="0 0 20 21" fill="none" xmlns="http://www.w3.org/2000/svg">
<path d="M8.94286 8.91786C8.73485 9.05692 8.55628 9.23559 8.41732 9.44366C8.27837 9.65174 8.18175 9.88514 8.133 10.1306C8.03455 10.6262 8.13701 11.1406 8.41786 11.5607C8.6987 11.9808 9.13492 12.2721 9.63056 12.3706C10.1262 12.469 10.6406 12.3666 11.0607 12.0857C11.4808 11.8049 11.7721 11.3686 11.8706 10.873C11.969 10.3774 11.8666 9.86294 11.5857 9.44286C11.3049 9.02277 10.8686 8.73146 10.373 8.633C9.87739 8.53455 9.36294 8.63701 8.94286 8.91786ZM14.025 6.475C13.8393 6.28929 13.6143 6.14286 13.3679 6.04643C12.7214 5.79286 11.3107 5.80357 10.4 5.81429C10.2536 5.81429 10.1179 5.81786 10 5.81786C9.88214 5.81786 9.74286 5.81786 9.59286 5.81429C8.68214 5.80357 7.27857 5.78929 6.63214 6.04643C6.38571 6.14286 6.16429 6.28929 5.975 6.475C5.78571 6.66071 5.64286 6.88571 5.54643 7.13214C5.29286 7.77857 5.30714 9.19286 5.31429 10.1036C5.31429 10.25 5.31786 10.3857 5.31786 10.5C5.31786 10.6143 5.31786 10.75 5.31429 10.8964C5.30714 11.8071 5.29286 13.2214 5.54643 13.8679C5.64286 14.1143 5.78929 14.3357 5.975 14.525C6.16071 14.7143 6.38571 14.8571 6.63214 14.9536C7.27857 15.2071 8.68929 15.1964 9.6 15.1857C9.74643 15.1857 9.88214 15.1821 10 15.1821C10.1179 15.1821 10.2571 15.1821 10.4071 15.1857C11.3179 15.1964 12.7214 15.2107 13.3679 14.9536C13.6143 14.8571 13.8357 14.7107 14.025 14.525C14.2143 14.3393 14.3571 14.1143 14.4536 13.8679C14.7107 13.225 14.6964 11.8179 14.6857 10.9036C14.6857 10.7536 14.6821 10.6143 14.6821 10.4964C14.6821 10.3786 14.6821 10.2429 14.6857 10.0893C14.6964 9.17857 14.7107 7.77143 14.4536 7.125C14.3571 6.87857 14.2107 6.65714 14.025 6.46786V6.475ZM11.6286 8.06429C12.2746 8.49621 12.7225 9.16706 12.8739 9.92926C13.0253 10.6915 12.8676 11.4826 12.4357 12.1286C12.2218 12.4484 11.9471 12.723 11.6271 12.9367C11.3071 13.1504 10.9481 13.2989 10.5707 13.3739C9.80853 13.5253 9.01742 13.3676 8.37143 12.9357C7.72544 12.5043 7.2773 11.8339 7.12559 11.072C6.97389 10.3101 7.13105 9.51921 7.5625 8.87321C7.99395 8.22722 8.66435 7.77908 9.42622 7.62738C10.1881 7.47568 10.979 7.63284 11.625 8.06429H11.6286ZM12.6714 8.01786C12.5607 7.94286 12.4714 7.83571 12.4179 7.71071C12.3643 7.58571 12.3536 7.45 12.3786 7.31429C12.4036 7.17857 12.4714 7.06071 12.5643 6.96429C12.6571 6.86786 12.7821 6.80357 12.9143 6.77857C13.0464 6.75357 13.1857 6.76429 13.3107 6.81786C13.4357 6.87143 13.5429 6.95714 13.6179 7.06786C13.6929 7.17857 13.7321 7.31071 13.7321 7.44643C13.7321 7.53571 13.7143 7.625 13.6821 7.70714C13.65 7.78929 13.5964 7.86429 13.5357 7.92857C13.475 7.99286 13.3964 8.04286 13.3143 8.07857C13.2321 8.11429 13.1429 8.13214 13.0536 8.13214C12.9179 8.13214 12.7857 8.09286 12.675 8.01786H12.6714ZM18 4.78571C18 3.525 16.975 2.5 15.7143 2.5H4.28571C3.025 2.5 2 3.525 2 4.78571V16.2143C2 17.475 3.025 18.5 4.28571 18.5H15.7143C16.975 18.5 18 17.475 18 16.2143V4.78571ZM14.75 15.25C14.0821 15.9179 13.2714 16.1286 12.3571 16.175C11.4143 16.2286 8.58571 16.2286 7.64286 16.175C6.72857 16.1286 5.91786 15.9179 5.25 15.25C4.58214 14.5821 4.37143 13.7714 4.32857 12.8571C4.275 11.9143 4.275 9.08571 4.32857 8.14286C4.375 7.22857 4.58214 6.41786 5.25 5.75C5.91786 5.08214 6.73214 4.87143 7.64286 4.82857C8.58571 4.775 11.4143 4.775 12.3571 4.82857C13.2714 4.875 14.0821 5.08214 14.75 5.75C15.4179 6.41786 15.6286 7.22857 15.6714 8.14286C15.725 9.08214 15.725 11.9071 15.6714 12.8536C15.625 13.7679 15.4179 14.5786 14.75 15.2464V15.25Z" fill="white"/>
</svg>
