<svg width="40" height="48" viewBox="0 0 40 48" fill="none" xmlns="http://www.w3.org/2000/svg">
<g clip-path="url(#clip0_2823_120)">
<path d="M26.2474 19.377C26.9478 19.0123 27.6336 18.842 28.3583 19.0269C29.5888 19.3381 30.3475 20.2136 30.4886 21.4733C30.8193 24.4061 31.1403 27.3389 31.4662 30.2718C31.5343 30.8895 31.6121 31.5071 31.6753 32.1248C31.7045 32.3923 31.8212 32.5042 32.0985 32.4556C32.8037 32.3243 33.329 32.6307 33.8056 33.1268C34.5449 33.9001 35.3182 34.6442 36.0672 35.4078C36.8454 36.2055 36.8503 37.115 36.0575 37.9078C32.8961 41.0789 29.7298 44.2452 26.5587 47.4115C25.7708 48.1994 24.8613 48.1994 24.0636 47.4115C23.2611 46.6236 22.4683 45.8259 21.6804 45.0283C20.9897 44.3279 20.8876 43.7394 21.3545 42.8639C21.481 42.6305 21.4032 42.5624 21.2427 42.4505C20.5228 41.9593 19.803 41.4583 19.088 40.9622C18.3925 40.4807 17.6386 40.5877 16.875 40.7336C16.5103 40.8017 16.1406 40.8795 15.771 40.9038C14.6523 40.9865 13.7039 40.5828 12.9208 39.8095C9.04933 35.9672 5.17782 32.12 1.31603 28.263C0.221694 27.1736 0.226558 25.4664 1.27712 24.4256C2.36173 23.3507 4.03484 23.3653 5.15836 24.4742C6.21379 25.515 7.25949 26.5607 8.29546 27.6162C8.55323 27.8788 8.67969 27.9469 8.8791 27.5384C9.29738 26.7067 10.0075 26.2203 10.9413 26.123C11.238 26.0938 11.3353 26.0111 11.379 25.6853C11.4909 24.7904 11.9432 24.0803 12.7458 23.6377C12.9743 23.5112 13.0133 23.3701 12.9987 23.127C12.8576 21.0793 13.3634 19.1679 14.3654 17.4024C14.9393 16.3859 15.8926 15.8071 17.0793 15.7536C19.1269 15.6612 21.1794 15.6174 23.2271 15.5493C24.049 15.5201 24.6813 15.9287 25.3136 16.5172C25.5714 15.3353 25.8145 14.2166 26.0577 13.1029C26.3641 11.7021 26.6754 10.3014 26.9721 8.9006C27.1083 8.26345 27.0937 8.26345 26.4711 8.42396C24.5548 8.91519 22.7164 9.63989 20.8779 10.35C18.0958 11.4249 15.3527 12.6213 12.4393 13.3314C10.4501 13.8178 8.45596 14.1145 6.43752 13.5065C5.39668 13.1904 4.47258 12.6554 3.75761 11.8237C2.245 10.0776 2.352 7.68954 4.00566 5.91428C5.46478 4.3433 6.82662 4.07093 9.08824 4.90263C9.91021 5.20418 9.88589 5.19931 9.95885 4.32385C10.0561 3.14683 10.3966 2.05249 11.2185 1.16243C13.0133 -0.77819 15.912 -0.189681 16.8118 2.28595C17.2787 3.57483 17.3809 4.91722 17.4295 6.26933C17.4587 7.05239 17.483 7.83545 17.3566 8.61851C17.2836 9.06597 17.0258 9.28483 16.6027 9.2897C16.2039 9.2897 15.9266 8.94438 15.9412 8.48232C15.985 6.78975 16.019 5.09718 15.6299 3.42892C15.5813 3.21978 15.5181 3.02037 15.4597 2.81609C15.2554 2.13031 14.8177 1.66339 14.1027 1.53207C13.3148 1.38616 12.6679 1.6488 12.1718 2.29081C11.5006 3.15655 11.4374 4.19739 11.345 5.22363C11.311 5.57868 11.3012 5.93374 11.2477 6.28879C11.165 6.84325 10.7857 7.07184 10.2507 6.89675C9.36061 6.60493 8.5046 6.20124 7.58535 5.97751C6.9093 5.81701 6.32565 5.92401 5.76146 6.30824C4.40935 7.22748 3.7722 8.96383 4.40449 10.2041C4.92977 11.2352 5.85387 11.814 6.92875 12.1155C8.57269 12.5776 10.2118 12.3538 11.8314 11.9745C14.9782 11.24 17.9207 9.92198 20.9168 8.76928C22.9547 7.98622 24.9926 7.20316 27.1423 6.77516C27.3612 6.73138 27.4731 6.63897 27.512 6.40065C27.5995 5.89483 27.7211 5.39386 27.833 4.8929C27.9546 4.33357 28.3194 4.02716 28.7376 4.12443C29.2094 4.24116 29.3845 4.6254 29.2581 5.22363C29.1754 5.61759 28.937 6.12342 29.0976 6.3812C29.2483 6.62925 29.8271 6.43956 30.2162 6.45415C33.008 6.58061 35.1091 8.18077 36.0624 10.9239C36.3591 11.7799 36.612 12.6408 36.719 13.5454C36.7579 13.8567 36.9087 14.0659 37.2054 14.2361C39.0925 15.3353 40.25 17.5337 39.0195 20.0093C38.3921 21.269 37.7744 22.519 37.541 23.9343C37.2345 25.7777 37.1421 27.6113 37.3707 29.4644C37.4388 30.0091 37.1956 30.3642 36.7579 30.4079C36.3445 30.4517 36.0283 30.1648 35.9651 29.6541C35.5225 26.1862 35.8435 22.8449 37.5458 19.7126C37.9884 18.8955 38.3483 18.0249 37.9009 17.0668C37.8279 16.9063 37.755 16.7409 37.6577 16.595C37.4485 16.2886 37.2443 15.8314 36.8941 15.8411C36.6169 15.8508 36.6801 16.3713 36.5634 16.6534C36.2375 17.4267 35.79 18.0979 35.114 18.6037C34.1996 19.2895 33.1928 19.377 32.3806 18.842C31.4127 18.2049 30.9555 17.1057 31.2035 16.0211C31.578 14.4063 33.0323 13.3363 34.7297 13.4774C35.2112 13.5163 35.255 13.419 35.148 12.9715C34.9583 12.1739 34.7443 11.386 34.3795 10.6515C33.4749 8.82278 31.9817 7.95218 29.9584 7.94245C28.6987 7.93759 28.689 7.93272 28.4215 9.13406C27.6871 12.4754 26.9575 15.8168 26.2328 19.1582C26.2231 19.2068 26.2426 19.2603 26.2523 19.3868L26.2474 19.377ZM20.2213 16.9744C19.2777 17.1251 18.3342 17.1349 17.3857 17.1592C16.5881 17.1786 15.9169 17.5094 15.5375 18.2389C14.7593 19.7321 14.3508 21.3177 14.4335 23.0102C14.4432 23.2194 14.4918 23.3264 14.7204 23.3701C15.1679 23.4577 15.5667 23.6668 15.8877 23.983C17.235 25.3108 18.5822 26.6337 19.8905 27.9955C20.6201 28.7543 20.8487 29.693 20.4839 30.7144C20.1143 31.7455 19.3653 32.3583 18.2952 32.5237C17.9402 32.5772 17.8429 32.689 17.7894 33.0246C17.6241 34.1238 16.9966 34.8874 15.9363 35.2279C14.8761 35.5683 13.9325 35.2911 13.1446 34.5129C12.3567 33.7396 11.5785 32.9517 10.7954 32.1686C8.60187 29.9751 6.40834 27.7815 4.2148 25.588C3.8257 25.1989 3.3977 24.9509 2.83351 25.1308C1.81213 25.4567 1.62731 26.5559 2.459 27.3827C6.2527 31.1521 10.061 34.9166 13.845 38.6957C14.4529 39.3037 15.1533 39.5274 15.9801 39.4107C16.3157 39.362 16.6464 39.294 16.9772 39.2405C18.1104 39.0459 19.1659 39.2015 20.1191 39.9068C20.8195 40.4272 21.5588 40.8941 22.2689 41.4048C22.4878 41.5604 22.6191 41.5459 22.8039 41.3562C25.2552 38.8903 27.7163 36.4341 30.1773 33.973C30.3232 33.8271 30.4156 33.6764 30.3864 33.4575C30.294 32.7328 30.2065 32.0081 30.1238 31.2834C29.9244 29.5325 29.7298 27.7815 29.5304 26.0306C29.3553 24.5083 29.19 22.9908 28.9905 21.4733C28.903 20.8021 28.3145 20.3498 27.6773 20.3984C27.0013 20.4519 26.5101 20.9772 26.5344 21.697C26.5587 22.3342 26.6365 22.9713 26.6997 23.6085C26.8165 24.7758 26.9429 25.9431 27.0694 27.1103C27.118 27.5432 27.0062 27.8885 26.6803 28.2144C26.048 28.8467 25.6638 29.6346 25.5811 30.5344C25.5227 31.157 25.5616 31.7795 25.6832 32.3923C25.7756 32.8495 25.5811 33.1851 25.1239 33.2727C24.657 33.3651 24.3943 33.0879 24.2825 32.6501C23.8788 31.0548 24.049 29.5471 24.9148 28.1317C25.0461 27.9177 25.2066 27.7669 24.8223 27.5773C21.729 26.0501 19.3264 23.7252 17.2933 20.9821C16.7778 20.2866 17.0161 19.7467 17.8721 19.6494C18.1347 19.6202 18.4071 19.6202 18.6746 19.6154C20.1386 19.5765 21.5977 19.5424 23.0617 19.4986C23.908 19.4743 24.4381 18.9442 24.4089 18.166C24.3846 17.417 23.7815 16.9452 22.9401 16.9646C22.0306 16.989 21.1211 16.9695 20.2115 16.9695L20.2213 16.9744ZM25.3039 46.4971C25.4449 46.4874 25.5179 46.3804 25.6054 46.2977C28.7328 43.1752 31.8553 40.0527 34.9826 36.9351C35.2015 36.7211 35.2064 36.58 34.9875 36.3709C34.2239 35.6218 33.4652 34.868 32.721 34.1044C32.5022 33.8758 32.3465 33.8612 32.1131 34.0946C28.9954 37.2269 25.8729 40.3494 22.7455 43.4719C22.5413 43.6762 22.5072 43.8269 22.731 44.0458C23.5091 44.8045 24.2727 45.5779 25.0412 46.3463C25.119 46.4242 25.192 46.502 25.3087 46.5068L25.3039 46.4971ZM16.3644 32.7766C16.3789 32.261 16.199 31.9595 15.9412 31.7017C14.7204 30.476 13.4996 29.2504 12.274 28.0296C11.6466 27.407 10.9219 27.373 10.3771 27.9031C9.86157 28.409 9.90048 29.2017 10.489 29.8048C11.238 30.5684 11.9967 31.3223 12.7555 32.0762C13.2467 32.5674 13.7331 33.0635 14.2389 33.5402C14.6377 33.9195 15.1241 33.9925 15.6251 33.7834C16.1163 33.5791 16.3303 33.1608 16.3595 32.7717L16.3644 32.7766ZM19.2291 21.1231C21.0043 23.2388 22.9547 25.0335 25.406 26.2495C25.5179 26.0403 25.4741 25.8604 25.4546 25.695C25.3768 24.8828 25.2649 24.0705 25.2066 23.2583C25.1434 22.4023 24.8564 21.5365 25.2406 20.6854C25.2844 20.5881 25.3282 20.4665 25.1969 20.4033C25.085 20.3498 24.9488 20.306 24.8369 20.3887C23.7669 21.1572 22.5218 20.948 21.3302 21.0064C20.659 21.0356 19.983 21.0015 19.2291 21.128V21.1231ZM19.1659 29.8438C19.1659 29.513 19.0783 29.2358 18.874 29.0315C17.5462 27.694 16.2233 26.3467 14.8663 25.0335C14.3946 24.5764 13.6115 24.6493 13.1689 25.0919C12.7312 25.5345 12.6679 26.3273 13.1203 26.7893C14.4335 28.1415 15.771 29.4741 17.1231 30.7922C17.4976 31.1618 17.9888 31.1861 18.4655 30.9673C18.9518 30.7435 19.161 30.335 19.1659 29.8389V29.8438ZM34.6081 14.9024C33.7035 14.8878 33.0031 15.3012 32.7162 16.0114C32.4632 16.6436 32.614 17.2565 33.1053 17.5775C33.5089 17.8401 33.9856 17.7331 34.4768 17.2467C34.934 16.7993 35.2064 16.2545 35.328 15.6223C35.4496 14.9851 35.4252 14.9511 34.7686 14.9024C34.7151 14.9024 34.6616 14.9024 34.6081 14.9024Z" fill="#0F9D58"/>
</g>
<defs>
<clipPath id="clip0_2823_120">
<rect width="39.041" height="48" fill="white" transform="translate(0.479492)"/>
</clipPath>
</defs>
</svg>
