<svg width="16" height="17" viewBox="0 0 16 17" fill="none" xmlns="http://www.w3.org/2000/svg">
<g clip-path="url(#clip0_2744_195)">
<path d="M8.75 0.49985C12.7531 0.49985 16 3.74673 16 7.74985C16 8.16548 15.6656 8.49985 15.25 8.49985C14.8344 8.49985 14.5 8.16548 14.5 7.74985C14.5 4.57485 11.925 1.99985 8.75 1.99985C8.33438 1.99985 8 1.66548 8 1.24985C8 0.834225 8.33438 0.49985 8.75 0.49985ZM9 6.49985C9.26522 6.49985 9.51957 6.60521 9.70711 6.79274C9.89464 6.98028 10 7.23463 10 7.49985C10 7.76507 9.89464 8.01942 9.70711 8.20696C9.51957 8.39449 9.26522 8.49985 9 8.49985C8.73478 8.49985 8.48043 8.39449 8.29289 8.20696C8.10536 8.01942 8 7.76507 8 7.49985C8 7.23463 8.10536 6.98028 8.29289 6.79274C8.48043 6.60521 8.73478 6.49985 9 6.49985ZM8 4.24985C8 3.83422 8.33438 3.49985 8.75 3.49985C11.0969 3.49985 13 5.40298 13 7.74985C13 8.16548 12.6656 8.49985 12.25 8.49985C11.8344 8.49985 11.5 8.16548 11.5 7.74985C11.5 6.2311 10.2688 4.99985 8.75 4.99985C8.33438 4.99985 8 4.66547 8 4.24985ZM3.67188 0.5436C4.27812 0.377975 4.9125 0.68735 5.15312 1.2686L6.40312 4.2686C6.61562 4.77798 6.46875 5.3686 6.04063 5.71548L4.5 6.97798C5.54063 9.17798 7.32188 10.9592 9.52188 11.9999L10.7812 10.4592C11.1313 10.0311 11.7188 9.88423 12.2281 10.0967L15.2281 11.3467C15.8094 11.5874 16.1187 12.2217 15.9531 12.828L15.2031 15.578C15.0562 16.1217 14.5625 16.4998 14 16.4998C6.26875 16.4998 0 10.2311 0 2.49985C0 1.93735 0.378125 1.4436 0.921875 1.2936L3.67188 0.5436Z" fill="white"/>
</g>
<defs>
<clipPath id="clip0_2744_195">
<rect width="16" height="16" fill="white" transform="translate(0 0.5)"/>
</clipPath>
</defs>
</svg>
