<svg width="20" height="15" viewBox="0 0 20 15" fill="none" xmlns="http://www.w3.org/2000/svg">
<path d="M19.2812 2.84363C19.0625 1.99988 18.4062 1.34363 17.5625 1.12488C16.0625 0.718628 10 0.718628 10 0.718628C10 0.718628 3.9375 0.718628 2.4375 1.12488C1.59375 1.34363 0.9375 1.99988 0.71875 2.84363C0.3125 4.37488 0.3125 7.49988 0.3125 7.49988C0.3125 7.49988 0.3125 10.6561 0.71875 12.1561C0.9375 12.9999 1.59375 13.6561 2.4375 13.8749C3.9375 14.2811 10 14.2811 10 14.2811C10 14.2811 16.0625 14.2811 17.5625 13.8749C18.4062 13.6561 19.0625 12.9999 19.2812 12.1561C19.6875 10.6561 19.6875 7.49988 19.6875 7.49988C19.6875 7.49988 19.6875 4.37488 19.2812 2.84363ZM8.0625 10.4061V4.59363L13.0938 7.49988L8.0625 10.4061Z" fill="white"/>
</svg>
